PathFileType	4	(X/Y/Z)	/Users/itak/Documents/Research/Walk-IL/dataset/trc/00328_00011.trc
DataRate	CameraRate	NumFrames	NumMarkers	Units	OrigDataRate	OrigDataStartFrame	OrigNumFrames
100.000000	100.000000	4	54	mm	100.000000	490	561
Frame#	Time	RPSI			LPSI			L3			STRN			T10			C7			CLAV			RBAK			LBAK			LSHO			LUPA			LAEL			LAOL			LWTS			LWPS			LFRA			LIFD			LHPS			LHTS			RSHO			RUPA			RAEL			RAOL			RWTS			RWPS			RFRA			RIFD			RHTS			RHPS			RBHD			LFHD			RFHD			LBHD			LHIP			RHIP			RASI			LASI			LKNE			LTHI			LANK			LTIP			LTOE			LMT1			LMT5			LHEE			RKNE			RTHI			RANK			RTIP			RTOE			RMT1			RMT5			RHEE			*53			
		X1	Y1	Z1	X2	Y2	Z2	X3	Y3	Z3	X4	Y4	Z4	X5	Y5	Z5	X6	Y6	Z6	X7	Y7	Z7	X8	Y8	Z8	X9	Y9	Z9	X10	Y10	Z10	X11	Y11	Z11	X12	Y12	Z12	X13	Y13	Z13	X14	Y14	Z14	X15	Y15	Z15	X16	Y16	Z16	X17	Y17	Z17	X18	Y18	Z18	X19	Y19	Z19	X20	Y20	Z20	X21	Y21	Z21	X22	Y22	Z22	X23	Y23	Z23	X24	Y24	Z24	X25	Y25	Z25	X26	Y26	Z26	X27	Y27	Z27	X28	Y28	Z28	X29	Y29	Z29	X30	Y30	Z30	X31	Y31	Z31	X32	Y32	Z32	X33	Y33	Z33	X34	Y34	Z34	X35	Y35	Z35	X36	Y36	Z36	X37	Y37	Z37	X38	Y38	Z38	X39	Y39	Z39	X40	Y40	Z40	X41	Y41	Z41	X42	Y42	Z42	X43	Y43	Z43	X44	Y44	Z44	X45	Y45	Z45	X46	Y46	Z46	X47	Y47	Z47	X48	Y48	Z48	X49	Y49	Z49	X50	Y50	Z50	X51	Y51	Z51	X52	Y52	Z52	X53	Y53	Z53	X54	Y54	Z54	

491	4.9	-1113.320068359375	989.6444702148438	204.1721801757812	-1115.541748046875	991.0929565429688	74.68875122070312	-1118.608154296875	1049.931396484375	142.7677459716797	-877.690185546875	1219.900146484375	120.287727355957	-1123.17919921875	1170.259033203125	131.7534942626953	-1069.60693359375	1414.399169921875	104.0437469482422	-918.0166015625	1344.454467773438	110.4435272216797	-1125.366088867188	1283.950805664062	183.2952117919922	-1081.697265625	1372.984008789062	3.949618101119995	-995.5491943359375	1382.6982421875	-52.63953018188477	-1009.466857910156	1260.045776367188	-115.1402816772461	-972.6511840820312	1057.816528320312	-121.1633453369141	-1038.126708984375	1040.09765625	-70.28642272949219	-852.7312622070312	831.075439453125	-59.35588073730469	-886.7293701171875	811.820556640625	-117.0106353759766	-945.7592163085938	954.9710083007812	-123.1287384033203	-817.8849487304688	679.4698486328125	-49.99581527709961	-879.5087890625	741.918212890625	-107.452880859375	-828.3988037109375	756.4669189453125	-69.42640686035156	-1005.55126953125	1404.788696289062	263.8757629394531	-1017.295227050781	1347.663452148438	335.0714111328125	-1026.531982421875	1089.435424804688	409.2700805664062	-1075.093139648438	1070.945434570312	329.7890014648438	-942.5150756835938	846.7820434570312	403.6232604980469	-972.361328125	851.14794921875	473.7623901367188	-1005.369567871094	1023.801208496094	429.2208251953125	-949.0924072265625	678.876708984375	446.4044189453125	-924.6273193359375	747.7734985351562	437.4622192382812	-967.4071044921875	766.1075439453125	489.0588684082031	-1032.941040039062	1610.161865234375	180.0404510498047	-869.184814453125	1633.188720703125	51.02877807617188	-874.4652709960938	1636.830810546875	152.2109527587891	-1052.158813476562	1597.278198242188	36.05688858032227	-1032.615356445312	930.4121704101562	-30.6749210357666	-1036.59228515625	927.9972534179688	311.2392883300781	-930.6099853515625	952.9898681640625	267.8539123535156	-912.68798828125	948.7205200195312	28.19417572021484	-978.3635864257812	465.9385986328125	-21.64043235778809	-984.43798828125	609.436279296875	-34.4534797668457	-1108.034301757812	55.37223434448242	-21.34516525268555	-1045.733276367188	255.5620422363281	-33.82188034057617	-905.4358520507812	51.97152709960938	41.40959930419922	-972.8173828125	35.86957550048828	79.27859497070312	-982.6442260742188	52.36214828491211	-33.00659942626953	-1144.044189453125	52.28507995605469	46.51682281494141	-1016.873840332031	459.1937255859375	282.8679504394531	-974.4713134765625	717.0641479492188	312.6213684082031	-1090.968872070312	49.07278060913086	234.9989929199219	-1014.46533203125	339.1883239746094	265.1250915527344	-896.5154418945312	53.04383850097656	188.7160186767578	-949.8685913085938	46.50531005859375	146.4581298828125	-989.4681396484375	43.66212844848633	257.1296081542969	-1142.697631835938	48.44552230834961	187.1543731689453	nan	nan	nan	
492	4.91	-1113.849487304688	989.0267333984375	203.0524139404297	-1115.95166015625	989.8812255859375	73.57080841064453	-1118.002319335938	1048.717651367188	141.3604736328125	-879.015869140625	1219.408569335938	119.5774230957031	-1124.24560546875	1169.226928710938	129.989013671875	-1071.204833984375	1413.611450195312	102.743782043457	-919.4536743164062	1344.049194335938	109.6493072509766	-1126.954467773438	1282.860717773438	181.5667266845703	-1082.786010742188	1372.243286132812	2.515369415283203	-996.37841796875	1382.155395507812	-53.70626831054688	-1009.711181640625	1259.3916015625	-116.2053146362305	-972.7290649414062	1057.170166015625	-121.8419952392578	-1038.48583984375	1039.46728515625	-71.39140319824219	-854.0095825195312	829.857666015625	-59.10800170898438	-887.4249877929688	810.9977416992188	-117.1847381591797	-945.9199829101562	954.3134155273438	-123.5759963989258	-819.234130859375	678.5314331054688	-50.12765502929688	-880.55908203125	741.0293579101562	-107.707763671875	-829.3056030273438	755.5106201171875	-69.37950134277344	-1007.807739257812	1403.835815429688	262.9406127929688	-1019.989135742188	1346.704467773438	333.9594421386719	-1030.629272460938	1088.65185546875	408.314208984375	-1078.135131835938	1070.04443359375	328.1749572753906	-946.3773803710938	846.05078125	403.8450622558594	-977.1785278320312	850.2675170898438	473.462890625	-1009.664611816406	1022.921142578125	428.6149291992188	-953.2351684570312	678.07763671875	446.2457885742188	-928.7459716796875	747.0086669921875	437.7217102050781	-972.3132934570312	765.2728881835938	488.7415161132812	-1035.522338867188	1609.384887695312	179.2846527099609	-871.44580078125	1633.072875976562	50.79134368896484	-877.0150756835938	1636.592529296875	151.9533538818359	-1054.248046875	1596.64111328125	35.25335311889648	-1032.397216796875	928.4796752929688	-31.07905387878418	-1036.418090820312	928.1692504882812	310.0942687988281	-930.8491821289062	953.3355102539062	266.4850463867188	-912.9667358398438	947.7333984375	26.8034610748291	-983.78369140625	464.7161254882812	-23.51307487487793	-989.0257568359375	608.2347412109375	-35.42087554931641	-1108.3349609375	53.41633605957031	-21.88261604309082	-1048.817016601562	254.0960083007812	-34.85725402832031	-905.6363525390625	51.41273498535156	41.16669464111328	-973.0105590820312	35.48617935180664	79.22610473632812	-982.62255859375	51.31077194213867	-33.39452743530273	-1144.442504882812	50.1047248840332	45.91526412963867	-1016.914733886719	459.3529663085938	282.5447692871094	-974.3286743164062	717.3344116210938	311.9974670410156	-1090.997314453125	48.98633193969727	235.0904083251953	-1014.587280273438	339.3833618164062	264.8889465332031	-896.6463623046875	53.47731781005859	188.5048065185547	-950.1461791992188	46.95424270629883	146.3715667724609	-989.4367065429688	43.6937255859375	257.0891418457031	-1142.760498046875	48.42985534667969	187.2930755615234	nan	nan	nan	
493	4.92	-1114.4248046875	988.3515625	201.9280700683594	-1116.458984375	988.5958862304688	72.44109344482422	-1117.526489257812	1047.592163085938	139.9833221435547	-880.3258056640625	1218.893798828125	118.7741775512695	-1125.284545898438	1168.308837890625	128.1610260009766	-1072.701416015625	1412.913696289062	101.4343490600586	-920.7426147460938	1343.68701171875	108.778923034668	-1128.495239257812	1281.832275390625	179.8247833251953	-1083.798583984375	1371.584228515625	1.054261684417725	-997.1317138671875	1381.636596679688	-54.82344818115234	-1009.939392089844	1258.738525390625	-117.293701171875	-972.8239135742188	1056.509887695312	-122.5457916259766	-1038.875	1038.836303710938	-72.52326965332031	-855.44091796875	828.56005859375	-58.87199020385742	-888.205078125	810.1445922851562	-117.3578338623047	-946.140380859375	953.6317138671875	-124.046745300293	-820.6751098632812	677.5746459960938	-50.29771041870117	-881.7210083007812	740.1206665039062	-107.9820175170898	-830.3556518554688	754.5113525390625	-69.36435699462891	-1009.925109863281	1402.815063476562	262.0176086425781	-1022.50927734375	1345.658569335938	332.8200378417969	-1034.529907226562	1087.76220703125	407.3093872070312	-1081.095825195312	1069.062622070312	326.5705261230469	-950.1044311523438	845.1915283203125	403.7516174316406	-981.7951049804688	849.2316284179688	472.9150695800781	-1013.771789550781	1021.898864746094	427.8761291503906	-957.1214599609375	677.1622314453125	445.7209777832031	-932.61376953125	746.136474609375	437.6250610351562	-976.94970703125	764.2921752929688	488.1178894042969	-1037.971313476562	1608.614135742188	178.5087738037109	-873.5947265625	1633.019287109375	50.54439163208008	-879.4449462890625	1636.410278320312	151.6797943115234	-1056.207763671875	1596.022216796875	34.43594741821289	-1032.166259765625	926.6581420898438	-31.52200126647949	-1036.293579101562	928.35400390625	308.9717102050781	-931.0928955078125	953.6619873046875	265.0922241210938	-913.2550048828125	946.8758544921875	25.37595367431641	-988.7144165039062	463.8124084472656	-25.30269813537598	-993.0663452148438	607.2547607421875	-36.38307571411133	-1108.575439453125	51.91716766357422	-22.16146278381348	-1051.68359375	252.9818420410156	-35.64641571044922	-905.781005859375	50.92642593383789	41.06925582885742	-973.1596069335938	35.22107315063477	79.31992340087891	-982.5780639648438	50.54009246826172	-33.60416030883789	-1144.77099609375	48.40902709960938	45.5816650390625	-1016.835266113281	459.4767150878906	282.0843505859375	-974.1212768554688	717.5805053710938	311.2884216308594	-1091.011474609375	48.9231071472168	235.1797332763672	-1014.611938476562	339.5474853515625	264.5493774414062	-896.75634765625	53.89814758300781	188.3050842285156	-950.4039306640625	47.42116546630859	146.2929229736328	-989.3981323242188	43.72993469238281	257.0435180664062	-1142.784912109375	48.43327713012695	187.4197998046875	nan	nan	nan	
494	4.93	-1115.026611328125	987.6503295898438	200.8301696777344	-1117.062377929688	987.31982421875	71.33551788330078	-1117.27685546875	1046.619018554688	138.64892578125	-881.6016235351562	1218.420532226562	117.8809509277344	-1126.296630859375	1167.556640625	126.3191757202148	-1074.10986328125	1412.351684570312	100.1252593994141	-921.9140625	1343.39599609375	107.8524398803711	-1129.99755859375	1280.924438476562	178.0786437988281	-1084.745483398438	1371.049438476562	-0.4247747659683228	-997.818115234375	1381.184448242188	-55.98212051391602	-1010.150207519531	1258.135009765625	-118.4030380249023	-972.9324951171875	1055.876220703125	-123.2728958129883	-1039.289184570312	1038.251953125	-73.67164611816406	-857.0298461914062	827.232666015625	-58.65851974487305	-889.0924682617188	809.3002319335938	-117.5345001220703	-946.426025390625	952.96826171875	-124.5361175537109	-822.1904907226562	676.6651000976562	-50.53574371337891	-883.0186157226562	739.2321166992188	-108.2771987915039	-831.5789184570312	753.477783203125	-69.37957763671875	-1011.910522460938	1401.792724609375	261.1079711914062	-1024.857543945312	1344.575439453125	331.6669006347656	-1038.221313476562	1086.796142578125	406.2385864257812	-1083.959594726562	1068.046875	324.9481811523438	-953.6934814453125	844.2464599609375	403.332763671875	-986.2112426757812	848.0866088867188	472.1039428710938	-1017.693664550781	1020.780212402344	426.9915466308594	-960.7847290039062	676.1640625	444.8502807617188	-936.257568359375	745.1909790039062	437.1751098632812	-981.3218994140625	763.210205078125	487.1921081542969	-1040.284423828125	1607.8984375	177.7180023193359	-875.6251831054688	1633.061401367188	50.29383850097656	-881.7568969726562	1636.309448242188	151.400146484375	-1058.037719726562	1595.467651367188	33.6079216003418	-1032.0625	925.0868530273438	-32.06876754760742	-1036.228881835938	928.5348510742188	307.8976440429688	-931.3446655273438	953.9750366210938	263.6891174316406	-913.5621337890625	946.2346801757812	23.92781448364258	-993.1242065429688	463.291748046875	-26.94840431213379	-996.5254516601562	606.5913696289062	-37.31797790527344	-1108.755004882812	50.86989593505859	-22.2573070526123	-1054.31494140625	252.2794799804688	-36.22037124633789	-905.8880615234375	50.49258804321289	41.07409286499023	-973.2849731445312	35.03637313842773	79.49507904052734	-982.5321044921875	50.01426315307617	-33.68898391723633	-1145.025268554688	47.20986557006836	45.4395751953125	-1016.629516601562	459.5823974609375	281.4730529785156	-973.8487548828125	717.7923583984375	310.4827880859375	-1091.003295898438	48.88914108276367	235.2729034423828	-1014.536193847656	339.6842956542969	264.1187133789062	-896.8438720703125	54.29231643676758	188.1251373291016	-950.62451171875	47.88018417358398	146.2135925292969	-989.3505249023438	43.77082824707031	256.9882202148438	-1142.768798828125	48.45803451538086	187.5352020263672	nan	nan	nan	
